PathFileType  4	(X/Y/Z) C:\Users\antoi\Documents\MyRepositories\mobilecap\ResultsAnalysis
DataRate	CameraRate	NumFrames	NumMarkers	Units	OrigDataRate	OrigDataStartFrame	OrigNumFrames
100.0	100.0	4	51	mm	100.0	1170	1336
Frame#	Time	r_knee			r_shank_antsup			r_ankle			r_calc			r_5meta			r_toe			L_knee			L_shank_antsup			L_ankle			L_calc			L_5meta			L_toe			r_sh2			r_sh3			r_sh4			L_sh2			L_sh3			r_thigh1			r_thigh2			r_thigh3			r_thigh4			r_thigh5			L_thigh1			L_thigh2			L_thigh3			L_thigh4			r.ASIS			r.PSIS			L.ASIS			L.PSIS			C7			R_Shoulder			L_Shoulder			R_Sternum			L_Sternum			R_humerus			R_elbow_med			R_elbow_lat			R_forearm			R_wrist_radius			R_wrist_ulna			L_humerus			L_elbow_med			L_elbow_lat			L_forearm			L_wrist_radius			L_wrist_ulna			R_HJC			L_HJC			R_HJC_reg			L_HJC_reg			
		X1	Y1	Z1	X2	Y2	Z2	X3	Y3	Z3	X4	Y4	Z4	X5	Y5	Z5	X6	Y6	Z6	X7	Y7	Z7	X8	Y8	Z8	X9	Y9	Z9	X10	Y10	Z10	X11	Y11	Z11	X12	Y12	Z12	X13	Y13	Z13	X14	Y14	Z14	X15	Y15	Z15	X16	Y16	Z16	X17	Y17	Z17	X18	Y18	Z18	X19	Y19	Z19	X20	Y20	Z20	X21	Y21	Z21	X22	Y22	Z22	X23	Y23	Z23	X24	Y24	Z24	X25	Y25	Z25	X26	Y26	Z26	X27	Y27	Z27	X28	Y28	Z28	X29	Y29	Z29	X30	Y30	Z30	X31	Y31	Z31	X32	Y32	Z32	X33	Y33	Z33	X34	Y34	Z34	X35	Y35	Z35	X36	Y36	Z36	X37	Y37	Z37	X38	Y38	Z38	X39	Y39	Z39	X40	Y40	Z40	X41	Y41	Z41	X42	Y42	Z42	X43	Y43	Z43	X44	Y44	Z44	X45	Y45	Z45	X46	Y46	Z46	X47	Y47	Z47	X48	Y48	Z48	X49	Y49	Z49	X50	Y50	Z50	X51	Y51	Z51	

1170	11.69000000	-225.07921	525.46599	-465.10923	-209.63310	447.07923	-440.09032	-333.30687	105.70843	-442.09600	-392.57572	52.79231	-487.94503	-203.16481	41.77484	-380.23959	-160.79208	63.70015	-435.73387	-215.00952	515.95355	-772.34532	-205.00275	399.18662	-787.29014	-345.07351	99.26721	-768.10166	-413.35443	51.09168	-724.96456	-202.50154	34.32963	-819.27243	-171.23853	58.88482	-756.30978	-234.84202	337.19529	-426.53141	-281.59708	464.19679	-431.43878	-315.16307	352.89537	-423.31184	-287.84419	431.43776	-802.57701	-318.36562	314.32538	-801.57109	-309.00600	831.85721	-449.70776	-247.36317	738.96071	-455.36014	-278.74611	688.04733	-426.12709	-400.88250	765.49563	-447.27707	-329.55623	672.04229	-441.08461	-289.99447	830.24744	-801.49324	-218.33024	708.75563	-793.63146	-390.77394	765.92425	-813.20961	-312.18691	652.26542	-808.32984	-333.70373	978.00381	-504.06042	-507.90573	1050.68842	-591.06964	-319.41574	974.53189	-758.16037	-503.48194	1048.93867	-697.65865	-404.71087	1537.64663	-639.26395	-340.16885	1500.00573	-458.45616	-317.23708	1509.03808	-795.62202	-260.21680	1465.87606	-597.55790	-255.25446	1462.24633	-650.05562	-391.96555	1235.17212	-368.86311	-444.72580	1152.10523	-441.27648	-427.27851	1153.22402	-358.53510	-368.39397	1003.60402	-344.74881	-329.13753	894.43545	-355.08948	-372.45407	893.52583	-344.37233	-341.28309	1247.83732	-883.34203	-410.01721	1171.61397	-832.95233	-375.83630	1166.12652	-890.84615	-342.10485	997.98838	-900.28079	-320.33946	901.70351	-888.07793	-357.18231	898.40052	-900.80493	-429.94758	915.92820	-514.16644	-413.85948	912.12963	-743.94031	-415.99769	918.93384	-542.49718	-409.03232	916.17952	-710.31707	
1171	11.70000000	-231.48764	527.52007	-464.92012	-215.58051	449.23981	-440.12703	-333.68358	105.63847	-441.79587	-392.71985	52.79087	-487.71120	-203.17530	41.70741	-380.14370	-160.85914	63.77925	-435.67616	-221.45859	518.72727	-773.39643	-210.40491	401.57524	-787.90181	-345.38430	99.27490	-768.55866	-413.53381	51.12999	-725.31864	-202.54939	34.33301	-819.33002	-171.41206	59.08843	-756.57635	-239.02154	338.92059	-426.46712	-287.95144	465.20161	-431.19707	-319.60241	353.41037	-422.88892	-293.64126	432.51146	-803.45094	-322.31784	314.80362	-802.15537	-306.74218	836.56495	-449.67551	-247.80278	742.06446	-456.09482	-280.53956	692.14367	-426.92896	-400.98925	773.58176	-447.01936	-332.07074	677.80585	-440.96103	-288.08668	835.43289	-801.68779	-219.73396	712.12247	-793.59268	-390.42448	774.09763	-814.47982	-314.98881	658.30446	-809.30188	-329.82420	986.86599	-504.41475	-504.04082	1059.08325	-591.23797	-315.35583	983.76548	-758.33255	-499.70059	1057.55288	-697.82583	-406.45270	1547.06046	-639.57482	-341.90842	1510.13630	-458.15213	-318.91740	1518.98304	-795.76696	-261.43468	1476.68867	-597.79904	-256.51153	1473.00871	-650.40474	-391.48351	1244.41077	-369.37454	-443.93342	1161.44489	-442.15509	-426.02899	1162.30305	-359.47987	-367.32540	1012.57183	-346.35508	-328.38102	903.34841	-357.23002	-371.54719	902.47276	-346.01988	-340.61250	1257.25988	-882.68517	-409.31628	1181.14631	-832.33940	-374.72508	1175.47250	-889.95762	-341.29791	1007.42140	-898.91225	-320.01086	910.89443	-886.42922	-356.72945	908.03758	-899.80447	-425.79846	924.48471	-514.52554	-409.63027	921.06663	-744.30102	-411.74329	927.58439	-542.85603	-404.91349	925.17655	-710.56844	
1172	11.71000000	-238.09236	529.25179	-464.98489	-221.54183	451.18646	-440.16579	-334.10564	105.57479	-441.59358	-392.81858	52.76976	-487.51876	-203.21529	41.59130	-380.06599	-160.90706	63.87010	-435.59364	-227.98934	521.38014	-774.52077	-215.73001	403.87442	-788.51564	-345.68744	99.36034	-769.09702	-413.74643	51.29770	-725.79090	-202.57127	34.34605	-819.34877	-171.58531	59.20869	-756.75076	-243.15780	340.64102	-426.34196	-294.01548	466.11889	-430.70496	-324.07959	353.66643	-422.60071	-299.44283	433.39204	-804.25387	-326.21182	315.25938	-802.84950	-304.66746	840.87928	-450.12888	-248.35205	744.87318	-456.60204	-282.39242	695.96079	-427.42312	-401.48834	781.57362	-446.42125	-334.66252	683.18179	-440.97573	-286.19806	840.20834	-801.93599	-221.25487	715.13272	-793.50783	-389.86327	781.71535	-815.96141	-317.78587	664.16648	-810.37745	-325.60859	994.98760	-504.19628	-500.17918	1066.90413	-591.32239	-311.59053	992.31713	-758.45274	-495.98368	1065.65332	-698.02957	-408.26055	1555.86059	-639.86557	-343.64723	1519.82964	-457.94750	-320.58188	1528.33397	-795.99319	-262.68454	1486.87430	-598.02039	-257.75882	1483.18590	-650.77456	-390.81925	1253.18374	-369.95767	-442.94429	1170.10865	-442.77676	-424.63400	1170.86680	-360.44155	-366.09599	1021.14401	-347.79671	-327.47299	911.89208	-359.18756	-370.50332	911.05690	-347.47331	-340.05694	1266.09949	-881.85060	-408.79234	1190.11734	-831.88589	-373.71820	1184.34622	-889.29048	-340.42644	1016.36434	-897.57035	-319.52279	919.67271	-884.87591	-356.07934	917.01513	-898.83260	-421.65186	932.46664	-514.67626	-405.54389	929.33875	-744.46025	-407.50294	935.35011	-542.72363	-400.90008	933.38139	-710.65449	
1173	11.72000000	-244.65839	530.75110	-465.59434	-227.58305	453.03398	-440.13876	-334.59415	105.61779	-441.32684	-392.71916	52.69993	-487.91258	-203.24857	41.46824	-380.02700	-160.94088	63.92886	-435.47427	-234.58768	523.88062	-775.47491	-221.09218	406.00707	-789.00613	-346.00152	99.37480	-769.48004	-413.82966	51.39182	-725.96063	-202.58340	34.36591	-819.34490	-171.64688	59.31583	-756.74822	-247.35257	342.26814	-426.06192	-299.98153	466.84394	-430.16645	-328.49491	353.87697	-422.37820	-305.22769	434.17267	-805.08442	-330.06338	315.78077	-803.70251	-302.49508	845.33832	-450.91219	-249.09186	747.46382	-456.85556	-284.41152	699.61331	-427.60904	-401.68024	788.95543	-446.14053	-337.30291	688.41729	-440.82299	-284.25430	844.63670	-802.29688	-222.84542	717.83783	-793.65905	-389.30001	789.03920	-816.94786	-320.78320	669.87938	-811.14221	-320.82028	1002.87568	-503.82201	-496.35789	1074.14241	-591.22105	-308.40863	999.85460	-759.16511	-492.31319	1073.10633	-698.11026	-410.05328	1564.06481	-640.20890	-345.33875	1528.84671	-458.25430	-322.21207	1537.11997	-796.28219	-264.00253	1496.44873	-598.25723	-258.99061	1492.72393	-651.04820	-390.02627	1261.36438	-370.68283	-441.82691	1178.42330	-443.28130	-423.09139	1178.88943	-361.59033	-364.77116	1029.30405	-349.10588	-326.34023	920.09973	-360.67663	-369.39224	919.19142	-348.95794	-339.67800	1274.36072	-881.07922	-408.39686	1198.40886	-831.52058	-372.80562	1192.62930	-888.61216	-339.51613	1024.68520	-896.26962	-318.95706	928.02310	-883.43382	-355.32562	925.27340	-897.78758	-417.10339	940.17867	-514.54459	-401.89142	936.69529	-744.37885	-403.19119	942.13221	-542.52950	-396.81157	940.49771	-711.14308	
